<svg width="16" height="16" viewBox="0 0 16 16" fill="none" xmlns="http://www.w3.org/2000/svg">
<path d="M5.4987 7.00047C5.49879 6.55072 5.6202 6.10933 5.85014 5.72281C6.08008 5.33629 6.41003 5.01896 6.80522 4.80425C7.2004 4.58955 7.64619 4.48542 8.0956 4.50286C8.545 4.52029 8.98139 4.65863 9.35875 4.9033C9.73612 5.14797 10.0405 5.48991 10.2398 5.89308C10.4391 6.29625 10.526 6.74572 10.4912 7.19412C10.4565 7.64252 10.3014 8.07324 10.0424 8.4409C9.78334 8.80855 9.42992 9.09952 9.01937 9.28313C10.802 9.69847 12.1654 11.1751 12.1654 12.9998C12.1654 13.1324 12.1127 13.2596 12.0189 13.3534C11.9252 13.4471 11.798 13.4998 11.6654 13.4998H4.33203C4.19942 13.4998 4.07225 13.4471 3.97848 13.3534C3.88471 13.2596 3.83203 13.1324 3.83203 12.9998C3.83203 11.1751 5.19536 9.69847 6.97803 9.28313C6.53728 9.08617 6.16299 8.76581 5.90036 8.36074C5.63772 7.95567 5.49799 7.48322 5.49803 7.00047" fill="#333333" fill-opacity="0.32"/>
<path d="M5.0026 2.49902C4.42999 2.49876 3.87463 2.69508 3.4294 3.05516C2.98416 3.41523 2.67603 3.91724 2.55652 4.47725C2.43701 5.03726 2.51336 5.62132 2.77282 6.13178C3.03227 6.64225 3.4591 7.04817 3.98194 7.28169C2.19927 7.69702 0.835937 9.17369 0.835937 10.9984C0.835937 11.2744 1.05994 11.4984 1.33594 11.4984H3.08594C3.4506 10.445 4.18794 9.57369 5.12194 8.98769C4.80389 8.52677 4.60103 7.99628 4.5304 7.44075C4.45976 6.88522 4.52341 6.32085 4.716 5.795C4.90859 5.26915 5.2245 4.79717 5.63722 4.41867C6.04994 4.04016 6.54743 3.76617 7.08794 3.61969C6.86 3.27514 6.55023 2.99244 6.18633 2.79687C5.82243 2.60131 5.41573 2.49898 5.0026 2.49902ZM12.9193 11.4984C12.5546 10.445 11.8173 9.57369 10.8833 8.98769C11.2012 8.52678 11.4039 7.99635 11.4745 7.4409C11.545 6.88545 11.4813 6.32118 11.2888 5.79543C11.0962 5.26968 10.7803 4.79778 10.3677 4.41931C9.95506 4.04085 9.45767 3.76687 8.91727 3.62036C9.13142 3.29708 9.41784 3.02806 9.75388 2.83455C10.0899 2.64104 10.4664 2.52836 10.8535 2.5054C11.2405 2.48245 11.6277 2.54986 11.9842 2.70229C12.3408 2.85473 12.657 3.08802 12.9078 3.38372C13.1587 3.67942 13.3373 4.02942 13.4296 4.40605C13.5219 4.78268 13.5253 5.17562 13.4396 5.55379C13.3538 5.93197 13.1813 6.28501 12.9356 6.58502C12.6899 6.88502 12.3778 7.12376 12.0239 7.28236C13.8059 7.69702 15.1693 9.17302 15.1693 10.9984C15.1693 11.131 15.1166 11.2581 15.0228 11.3519C14.9291 11.4457 14.8019 11.4984 14.6693 11.4984L12.9193 11.4984Z" fill="#333333" fill-opacity="0.32"/>
</svg>
