<svg width="16" height="16" viewBox="0 0 16 16" fill="none" xmlns="http://www.w3.org/2000/svg">
<path d="M4.75203 12.186C4.62388 12.289 4.46221 12.341 4.29807 12.332C4.13392 12.323 3.97888 12.2537 3.86273 12.1374C3.74657 12.0211 3.67748 11.8659 3.66874 11.7018C3.66 11.5376 3.71222 11.376 3.81536 11.248L3.8607 11.1974L10.056 5.00204H5.9987L5.93003 4.9987C5.76557 4.98219 5.61311 4.90518 5.50223 4.78261C5.39135 4.66004 5.32995 4.50065 5.32995 4.33537C5.32995 4.17008 5.39135 4.01069 5.50223 3.88812C5.61311 3.76555 5.76557 3.68854 5.93003 3.67204L5.9987 3.6687H11.6654C11.8422 3.6687 12.0117 3.73894 12.1368 3.86396C12.2618 3.98899 12.332 4.15856 12.332 4.33537V10.002C12.332 10.1788 12.2618 10.3484 12.1368 10.4734C12.0117 10.5985 11.8422 10.6687 11.6654 10.6687C11.4886 10.6687 11.319 10.5985 11.194 10.4734C11.0689 10.3484 10.9987 10.1788 10.9987 10.002V5.9447L4.80336 12.14L4.75203 12.186Z" fill="#333333" fill-opacity="0.32"/>
</svg>
