<svg width="16" height="16" viewBox="0 0 16 16" fill="none" xmlns="http://www.w3.org/2000/svg">
<path fill-rule="evenodd" clip-rule="evenodd" d="M3.50547 1.85059C3.06786 1.85059 2.64818 2.02442 2.33874 2.33386C2.02931 2.64329 1.85547 3.06298 1.85547 3.50059L1.85547 12.5006C1.85547 12.7173 1.89815 12.9318 1.98107 13.132C2.06399 13.3322 2.18553 13.5141 2.33874 13.6673C2.49196 13.8205 2.67385 13.9421 2.87404 14.025C3.07423 14.1079 3.28879 14.1506 3.50547 14.1506H12.5055C12.7222 14.1506 12.9367 14.1079 13.1369 14.025C13.3371 13.9421 13.519 13.8205 13.6722 13.6673C13.8254 13.5141 13.9469 13.3322 14.0299 13.132C14.1128 12.9318 14.1555 12.7173 14.1555 12.5006V3.50059C14.1555 3.2839 14.1128 3.06935 14.0299 2.86916C13.9469 2.66897 13.8254 2.48708 13.6722 2.33386C13.519 2.18064 13.3371 2.0591 13.1369 1.97618C12.9367 1.89326 12.7222 1.85059 12.5055 1.85059L3.50547 1.85059ZM12.9843 12.3932C12.9843 12.7172 12.7221 12.9788 12.3981 12.9788H4.90707L9.41307 8.92399C9.61118 8.74565 9.86302 8.63835 10.1289 8.61901C10.3947 8.59967 10.6594 8.6694 10.8813 8.81719L12.9843 10.2194V12.3932ZM5.60547 6.80059C5.92373 6.80059 6.22895 6.67416 6.454 6.44911C6.67904 6.22407 6.80547 5.91885 6.80547 5.60059C6.80547 5.28233 6.67904 4.9771 6.454 4.75206C6.22895 4.52701 5.92373 4.40059 5.60547 4.40059C5.28721 4.40059 4.98198 4.52701 4.75694 4.75206C4.5319 4.9771 4.40547 5.28233 4.40547 5.60059C4.40547 5.91885 4.5319 6.22407 4.75694 6.44911C4.98198 6.67416 5.28721 6.80059 5.60547 6.80059Z" fill="#333333" fill-opacity="0.32"/>
</svg>
