<svg width="16" height="16" viewBox="0 0 16 16" fill="none" xmlns="http://www.w3.org/2000/svg">
<path fill-rule="evenodd" clip-rule="evenodd" d="M8.68118 2.9495C9.89718 1.6835 11.8812 1.6835 13.0978 2.9495C14.2998 4.20083 14.2998 6.21883 13.0978 7.4695L10.9378 9.7175C10.7538 9.90926 10.5462 10.0768 10.3198 10.2162C9.72557 10.5815 9.02373 10.7313 8.33207 10.6406C7.64041 10.5498 7.00102 10.2238 6.52118 9.7175C6.36027 9.54988 6.2181 9.36524 6.09718 9.16683C6.05054 9.09209 6.01917 9.00885 6.0049 8.92191C5.99063 8.83497 5.99373 8.74607 6.01402 8.66034C6.03431 8.57461 6.0714 8.49375 6.12313 8.42244C6.17486 8.35113 6.24021 8.29078 6.31541 8.24488C6.39061 8.19897 6.47416 8.16843 6.56123 8.15501C6.6483 8.1416 6.73717 8.14557 6.82269 8.1667C6.90822 8.18784 6.98871 8.22572 7.05951 8.27815C7.13031 8.33058 7.19002 8.39652 7.23518 8.47217C7.72651 9.2775 8.79851 9.58617 9.62184 9.08017C9.74762 9.00372 9.86584 8.90817 9.97651 8.7935L12.1365 6.54617C12.8425 5.81083 12.8425 4.60883 12.1365 3.8735C11.9766 3.70298 11.7835 3.56705 11.569 3.47413C11.3545 3.38122 11.1233 3.33327 10.8895 3.33327C10.6558 3.33327 10.4245 3.38122 10.21 3.47413C9.99553 3.56705 9.80238 3.70298 9.64251 3.8735L9.16651 4.36883C9.04398 4.49631 8.87583 4.5699 8.69904 4.5734C8.52226 4.5769 8.35132 4.51003 8.22384 4.3875C8.09636 4.26497 8.02278 4.09682 8.01928 3.92003C8.01578 3.74325 8.08265 3.57231 8.20518 3.44483L8.68118 2.9495Z" fill="#333333" fill-opacity="0.32"/>
<path fill-rule="evenodd" clip-rule="evenodd" d="M5.0615 6.28251C6.27817 5.01651 8.2615 5.01651 9.47817 6.28251C9.64172 6.45362 9.78305 6.63717 9.90217 6.83317C9.95103 6.90789 9.98438 6.99167 10.0003 7.07952C10.0161 7.16738 10.0142 7.25753 9.99456 7.34462C9.97494 7.43171 9.93801 7.51397 9.88599 7.58653C9.83396 7.65908 9.7679 7.72044 9.69171 7.76698C9.61552 7.81352 9.53076 7.84427 9.44245 7.85743C9.35415 7.87059 9.26411 7.86587 9.17766 7.84357C9.09121 7.82127 9.01013 7.78183 8.93921 7.72759C8.8683 7.67336 8.809 7.60543 8.76483 7.52784C8.69409 7.41203 8.61093 7.30429 8.51683 7.20651C8.35691 7.03607 8.16374 6.90023 7.94927 6.80736C7.73479 6.7145 7.50355 6.66659 7.26983 6.66659C7.03611 6.66659 6.80488 6.7145 6.5904 6.80736C6.37592 6.90023 6.18276 7.03607 6.02283 7.20651L3.86283 9.45384C3.15683 10.1892 3.15683 11.3912 3.86283 12.1265C4.02276 12.2969 4.21592 12.4328 4.4304 12.5257C4.64488 12.6185 4.87611 12.6664 5.10983 12.6664C5.34355 12.6664 5.57479 12.6185 5.78927 12.5257C6.00374 12.4328 6.19691 12.2969 6.35683 12.1265L6.83283 11.6312C6.95536 11.5037 7.12352 11.4301 7.3003 11.4266C7.47708 11.4231 7.64802 11.49 7.7755 11.6125C7.90298 11.735 7.97656 11.9032 7.98007 12.08C7.98357 12.2568 7.9167 12.4277 7.79417 12.5552L7.31883 13.0505C7.03452 13.3506 6.69204 13.5896 6.3123 13.7529C5.93257 13.9162 5.52353 14.0004 5.11017 14.0004C4.6968 14.0004 4.28776 13.9162 3.90803 13.7529C3.52829 13.5896 3.18582 13.3506 2.9015 13.0505C1.6995 11.7992 1.6995 9.78117 2.9015 8.53051L5.0615 6.28251Z" fill="#333333" fill-opacity="0.32"/>
</svg>
