<svg width="16" height="16" viewBox="0 0 16 16" fill="none" xmlns="http://www.w3.org/2000/svg">
<g clip-path="url(#clip0_2021_10861)">
<path fill-rule="evenodd" clip-rule="evenodd" d="M8.04508 1.5L7.97575 1.5C7.37642 1.5 6.87708 1.5 6.48108 1.55333C6.06242 1.60933 5.68442 1.73333 5.38108 2.03667C5.07708 2.34067 4.95308 2.71867 4.89708 3.13667C4.85775 3.42733 4.84775 3.77267 4.84508 4.172C4.43842 4.17867 4.08242 4.19333 3.76908 4.22533C3.17708 4.28533 2.68308 4.412 2.25108 4.70067C1.90602 4.9323 1.60939 5.22894 1.37775 5.574C1.08842 6.006 0.962417 6.50067 0.902417 7.092C0.84375 7.66933 0.84375 8.448 0.84375 9.36133C0.84375 10.274 0.84375 10.9973 0.902417 11.5747C0.962417 12.1667 1.08908 12.6607 1.37775 13.0927C1.60842 13.4387 1.90508 13.7353 2.25108 13.966C2.68308 14.2553 3.17775 14.3813 3.76908 14.4413C4.34642 14.5 5.06975 14.5 5.98242 14.5L10.0384 14.5C10.9511 14.5 11.6744 14.5 12.2517 14.4413C12.8437 14.3813 13.3377 14.2547 13.7697 13.9667C14.1149 13.7348 14.4115 13.438 14.6431 13.0927C14.9324 12.6607 15.0584 12.166 15.1184 11.5747C15.1771 10.9973 15.1771 10.274 15.1771 9.36133C15.1771 8.448 15.1771 7.66933 15.1184 7.092C15.0584 6.5 14.9317 6.006 14.6437 5.574C14.4119 5.22888 14.115 4.93224 13.7697 4.70067C13.3377 4.41133 12.8431 4.28533 12.2517 4.22533C11.9384 4.19333 11.5824 4.17867 11.1764 4.172C11.1731 3.77267 11.1631 3.42733 11.1237 3.13733C11.0677 2.71867 10.9437 2.34067 10.6397 2.03733C10.3364 1.73333 9.95842 1.60933 9.53975 1.55333C9.14375 1.5 8.64375 1.5 8.04508 1.5ZM10.1757 4.16667C10.1731 3.78667 10.1637 3.5 10.1331 3.27C10.0911 2.96267 10.0197 2.83067 9.93308 2.744C9.84641 2.65733 9.71441 2.586 9.40642 2.544C9.08508 2.50133 8.65308 2.5 8.01042 2.5C7.36775 2.5 6.93575 2.50133 6.61375 2.54467C6.30642 2.586 6.17442 2.65733 6.08775 2.74467C6.00108 2.832 5.92975 2.96267 5.88775 3.27C5.85708 3.50067 5.84775 3.78733 5.84508 4.16667L10.1757 4.16667ZM3.53308 7.18533C3.57239 7.05877 3.66034 6.953 3.77759 6.89125C3.89485 6.82949 4.03182 6.81682 4.15842 6.856L4.59308 6.99067C6.82065 7.67011 9.20018 7.67011 11.4277 6.99067L11.8624 6.856C11.9251 6.83656 11.9911 6.82967 12.0565 6.83572C12.1219 6.84177 12.1854 6.86064 12.2435 6.89125C12.3016 6.92187 12.3531 6.96362 12.3951 7.01414C12.437 7.06465 12.4686 7.12294 12.4881 7.18567C12.5075 7.24839 12.5144 7.31434 12.5084 7.37973C12.5023 7.44512 12.4834 7.50868 12.4528 7.56678C12.4222 7.62487 12.3805 7.67637 12.3299 7.71833C12.2794 7.7603 12.2211 7.7919 12.1584 7.81133L11.7237 7.946C10.6809 8.26664 9.60067 8.44974 8.51042 8.49067L8.51042 9.33333C8.51042 9.46594 8.45774 9.59312 8.36397 9.68689C8.2702 9.78065 8.14302 9.83333 8.01042 9.83333C7.87781 9.83333 7.75063 9.78065 7.65686 9.68689C7.56309 9.59312 7.51042 9.46594 7.51042 9.33333L7.51042 8.49067C6.42016 8.44974 5.33992 8.26664 4.29708 7.946L3.86242 7.81133C3.79968 7.79187 3.74138 7.76024 3.69087 7.71824C3.64036 7.67625 3.59862 7.62471 3.56804 7.56657C3.53745 7.50844 3.51863 7.44485 3.51263 7.37943C3.50663 7.31402 3.51358 7.24806 3.53308 7.18533Z" fill="#333333" fill-opacity="0.32"/>
</g>
<defs>
<clipPath id="clip0_2021_10861">
<rect width="16" height="16" fill="white"/>
</clipPath>
</defs>
</svg>
